<?xml version="1.0" encoding="UTF-8"?>
<svg id="Layer_1" xmlns="http://www.w3.org/2000/svg" version="1.1" viewBox="0 0 500 500">
  <!-- Generator: Adobe Illustrator 29.5.1, SVG Export Plug-In . SVG Version: 2.1.0 Build 141)  -->
  <defs>
    <style>
      .st0 {
        fill: #00d9ea;
      }

      .st1 {
        fill: #fff;
      }
    </style>
  </defs>
  <path class="st0" d="M498.87,297.29c0,59.41-47.88,107.64-107.17,107.99h-65.58v-52.54h22.08l-98.5-99.51-98.5,99.51h22.08v52.54h-55.09v-.23C52.9,401.05,1.13,346.7,1.13,280.35s55.76-124.93,124.7-124.93c19.53,0,37.88,4.47,54.35,12.47,14.47-42.59,54.7-73.18,102.11-73.18,55.06,0,100.47,41.3,107.06,94.59h1.52c59.65,0,107.88,48.35,108,107.99Z"/>
  <polygon class="st1" points="348.2 352.74 326.12 352.74 326.12 405.29 173.28 405.29 173.28 352.74 151.2 352.74 249.7 253.23 348.2 352.74"/>
</svg>